<svg width="50" height="47" viewBox="0 0 50 47" fill="none" xmlns="http://www.w3.org/2000/svg">
<path d="M24.9998 44.3935H18.7498C7.43734 44.3935 2.604 39.8663 2.604 29.2704V17.5623C2.604 6.96637 7.43734 2.43921 18.7498 2.43921H31.2498C42.5623 2.43921 47.3957 6.96637 47.3957 17.5623V23.4163C47.3957 24.2164 46.6873 24.8799 45.8332 24.8799C44.979 24.8799 44.2707 24.2164 44.2707 23.4163V17.5623C44.2707 8.56648 40.854 5.36625 31.2498 5.36625H18.7498C9.14567 5.36625 5.729 8.56648 5.729 17.5623V29.2704C5.729 38.2662 9.14567 41.4664 18.7498 41.4664H24.9998C25.854 41.4664 26.5623 42.1299 26.5623 42.93C26.5623 43.73 25.854 44.3935 24.9998 44.3935Z" fill="#141E46"/>
<path d="M34.1045 44.4325C34.0837 44.4325 34.0837 44.4325 34.0629 44.4325C31.9587 44.413 30.2087 43.2032 29.5837 41.3104L25.7295 29.6998C25.2087 28.0997 25.6462 26.3825 26.917 25.2312C28.167 24.0799 29.9795 23.6506 31.6462 24.1384L44.0629 27.7484C46.0629 28.3338 47.3754 29.973 47.3962 31.9438C47.417 33.8952 46.1462 35.5539 44.1462 36.1783L40.7504 37.2515C40.2712 37.4077 39.8962 37.7394 39.7504 38.1882L38.5837 41.3884C37.9379 43.2422 36.1879 44.4325 34.1045 44.4325ZM30.2295 26.8703C29.667 26.8703 29.292 27.163 29.1254 27.2996C28.6879 27.7094 28.542 28.2753 28.7295 28.8412L32.5837 40.4518C32.917 41.447 33.792 41.486 34.1254 41.5055C34.417 41.5055 35.3129 41.4275 35.6462 40.4713L36.8129 37.2711C37.2712 35.9637 38.3962 34.9295 39.792 34.4806L43.1879 33.4074C44.2295 33.0951 44.292 32.2366 44.292 31.9829C44.292 31.7292 44.2087 30.8706 43.167 30.5584L30.7504 26.9484C30.542 26.8898 30.3754 26.8703 30.2295 26.8703Z" fill="#141E46"/>
</svg>