<svg width="50" height="49" viewBox="0 0 50 49" fill="none" xmlns="http://www.w3.org/2000/svg">
<path d="M42.9584 26.4283C42.1667 26.4283 41.5001 25.8419 41.3959 25.0735C40.8959 20.5036 38.3542 16.3584 34.4376 13.7297C33.7292 13.2444 33.5626 12.3143 34.0417 11.6268C34.5417 10.9393 35.5209 10.7775 36.2084 11.2426C40.8751 14.3768 43.8751 19.3106 44.4792 24.7499C44.5626 25.579 43.9584 26.3271 43.0834 26.4283C43.0626 26.4283 43.0001 26.4283 42.9584 26.4283Z" fill="#141E46"/>
<path d="M7.27113 26.5294C7.20863 26.5294 7.16696 26.5294 7.10446 26.5294C6.25029 26.4283 5.62529 25.6802 5.70863 24.8511C6.27113 19.4118 9.25029 14.4982 13.8545 11.3236C14.5628 10.8383 15.542 11 16.042 11.6875C16.542 12.375 16.3753 13.3254 15.667 13.8107C11.792 16.4596 9.29196 20.6048 8.81279 25.1747C8.75029 25.943 8.06279 26.5294 7.27113 26.5294Z" fill="#141E46"/>
<path d="M25.1248 45.7188C22.0414 45.7188 19.1039 45.0313 16.3539 43.6967C15.5831 43.3126 15.2706 42.4026 15.6664 41.6545C16.0623 40.9063 16.9998 40.603 17.7706 40.9872C22.2706 43.1912 27.6873 43.2317 32.2289 41.1085C32.9998 40.7445 33.9373 41.0681 34.3123 41.8162C34.6873 42.5644 34.3539 43.4743 33.5831 43.8383C30.9164 45.092 28.0831 45.7188 25.1248 45.7188Z" fill="#141E46"/>
<path d="M25.1252 17.0662C21.0627 17.0662 17.771 13.8713 17.771 9.92833C17.771 5.98532 21.0627 2.79047 25.1252 2.79047C29.1877 2.79047 32.4793 5.98532 32.4793 9.92833C32.4793 13.8713 29.1668 17.0662 25.1252 17.0662ZM25.1252 5.84378C22.7918 5.84378 20.896 7.68385 20.896 9.94855C20.896 12.2133 22.7918 14.0533 25.1252 14.0533C27.4585 14.0533 29.3543 12.2133 29.3543 9.94855C29.3543 7.68385 27.4377 5.84378 25.1252 5.84378Z" fill="#141E46"/>
<path d="M10.0627 41.7959C6.00016 41.7959 2.7085 38.6011 2.7085 34.6581C2.7085 30.7353 6.00016 27.5202 10.0627 27.5202C14.1252 27.5202 17.4168 30.7151 17.4168 34.6581C17.4168 38.5809 14.1252 41.7959 10.0627 41.7959ZM10.0627 30.5533C7.72933 30.5533 5.8335 32.3934 5.8335 34.6581C5.8335 36.9228 7.72933 38.7628 10.0627 38.7628C12.396 38.7628 14.2918 36.9228 14.2918 34.6581C14.2918 32.3934 12.396 30.5533 10.0627 30.5533Z" fill="#141E46"/>
<path d="M39.9377 41.7959C35.8752 41.7959 32.5835 38.6011 32.5835 34.6581C32.5835 30.7353 35.8752 27.5202 39.9377 27.5202C44.0002 27.5202 47.2918 30.7151 47.2918 34.6581C47.271 38.5809 43.9793 41.7959 39.9377 41.7959ZM39.9377 30.5533C37.6043 30.5533 35.7085 32.3934 35.7085 34.6581C35.7085 36.9228 37.6043 38.7628 39.9377 38.7628C42.271 38.7628 44.1668 36.9228 44.1668 34.6581C44.146 32.3934 42.271 30.5533 39.9377 30.5533Z" fill="#141E46"/>
</svg>