<svg width="50" height="49" viewBox="0 0 50 49" fill="none" xmlns="http://www.w3.org/2000/svg">
<path d="M18.0626 46.0019H4.16675C3.31258 46.0019 2.60425 45.3144 2.60425 44.4853V32.353C2.60425 29.2794 5.16675 26.7923 8.33342 26.7923H18.0626C18.9167 26.7923 19.6251 27.4798 19.6251 28.3088V44.4853C19.6251 45.3144 18.9167 46.0019 18.0626 46.0019ZM5.72925 42.9688H16.5001V29.8254H8.33342C6.89592 29.8254 5.72925 30.9577 5.72925 32.353V42.9688Z" fill="#141E46"/>
<path d="M31.9378 46.0018H18.042C17.1878 46.0018 16.4795 45.3143 16.4795 44.4853V24.2647C16.4795 21.1912 19.042 18.704 22.2087 18.704H27.7712C30.9378 18.704 33.5003 21.1912 33.5003 24.2647V44.4853C33.5003 45.3143 32.8128 46.0018 31.9378 46.0018ZM19.6253 42.9687H30.3962V24.2647C30.3962 22.8695 29.2295 21.7371 27.792 21.7371H22.2295C20.792 21.7371 19.6253 22.8695 19.6253 24.2647V42.9687Z" fill="#141E46"/>
<path d="M45.8336 46.0018H31.9377C31.0836 46.0018 30.3752 45.3143 30.3752 44.4853V34.375C30.3752 33.546 31.0836 32.8585 31.9377 32.8585H41.6669C44.8336 32.8585 47.3961 35.3456 47.3961 38.4191V44.4853C47.3961 45.3143 46.6877 46.0018 45.8336 46.0018ZM33.5002 42.9688H44.2711V38.4191C44.2711 37.0239 43.1044 35.8915 41.6669 35.8915H33.5002V42.9688Z" fill="#141E46"/>
<path d="M28.5415 16.8841C28.0415 16.8841 27.4165 16.7426 26.7082 16.3382L24.9999 15.3474L23.3124 16.318C21.604 17.3088 20.479 16.7224 20.0624 16.4393C19.6457 16.1562 18.7499 15.2665 19.1874 13.4062L19.5832 11.7279L18.1665 10.3529C17.2915 9.50361 16.979 8.49257 17.2915 7.56243C17.604 6.63228 18.4582 5.98521 19.6665 5.783L21.479 5.47971L22.4999 3.49813C23.6249 1.33453 26.354 1.33453 27.4582 3.49813L28.479 5.47971L30.2915 5.783C31.4999 5.98521 32.3749 6.63228 32.6665 7.56243C32.979 8.49257 32.6457 9.50361 31.7915 10.3529L30.3749 11.7279L30.7707 13.4062C31.2082 15.2867 30.3124 16.1562 29.8957 16.4595C29.7082 16.6213 29.229 16.8841 28.5415 16.8841ZM24.9999 12.294C25.4999 12.294 25.9999 12.4154 26.4165 12.6581L27.5832 13.3253L27.3332 12.2334C27.1249 11.3841 27.4374 10.3529 28.0832 9.72604L29.1457 8.69477L27.8332 8.47238C26.9999 8.33083 26.1874 7.74443 25.8124 7.01649L24.9999 5.49995L24.2082 7.01649C23.8332 7.74443 23.0207 8.33083 22.1874 8.47238L20.8749 8.67459L21.9374 9.7058C22.5832 10.3326 22.8749 11.3639 22.6874 12.2132L22.4374 13.3051L23.604 12.6378C23.9999 12.3952 24.4999 12.294 24.9999 12.294Z" fill="#141E46"/>
</svg>
